PathFileType	4	(X/Y/Z)	Kaydara																																																																																																																									
DataRate	CameraRate	NumFrames	NumMarkers	Units	OrigDataRate	OrigDataStartFrame	OrigNumFrames																																																																																																																					
30	30	4	41	mm	30	90	115																																																																																																																					
Frame#	Time	PAIB_LFHD			PAIB_RFHD			PAIB_LBHD			PAIB_RBHD			PAIB_LFTShould			PAIB_RFTShould			PAIB_LRRShould			PAIB_RRRShould			PAIB_T10			PAIB_STRN			PAIB_TRUN			PAIB_LSHO			PAIB_LUPA			PAIB_LELB			PAIB_LFRM			PAIB_LWRA			PAIB_LWRB			PAIB_LFIN			PAIB_RSHO			PAIB_RUPA			PAIB_RELB			PAIB_RFRM			PAIB_RWRA			PAIB_RWRB			PAIB_RFIN			PAIB_LFWT			PAIB_RFWT			PAIB_LBWT			PAIB_RBWT			PAIB_LTHI			PAIB_LKNE			PAIB_LSHN			PAIB_LANK			PAIB_LHEE			PAIB_LTOE			PAIB_RTHI			PAIB_RKNE			PAIB_RSHN			PAIB_RANK			PAIB_RHEE			PAIB_RTOE		
		X1	Y1	Z1	X2	Y2	Z2	X3	Y3	Z3	X4	Y4	Z4	X5	Y5	Z5	X6	Y6	Z6	X7	Y7	Z7	X8	Y8	Z8	X9	Y9	Z9	X10	Y10	Z10	X11	Y11	Z11	X12	Y12	Z12	X13	Y13	Z13	X14	Y14	Z14	X15	Y15	Z15	X16	Y16	Z16	X17	Y17	Z17	X18	Y18	Z18	X19	Y19	Z19	X20	Y20	Z20	X21	Y21	Z21	X22	Y22	Z22	X23	Y23	Z23	X24	Y24	Z24	X25	Y25	Z25	X26	Y26	Z26	X27	Y27	Z27	X28	Y28	Z28	X29	Y29	Z29	X30	Y30	Z30	X31	Y31	Z31	X32	Y32	Z32	X33	Y33	Z33	X34	Y34	Z34	X35	Y35	Z35	X36	Y36	Z36	X37	Y37	Z37	X38	Y38	Z38	X39	Y39	Z39	X40	Y40	Z40	X41	Y41	Z41
																																																																																																																												
72	2.967	304.72706	1599.97955	-63.31738	121.14193	1595.29999	-78.90512	324.2281	1592.60651	-191.03886	120.55209	1596.70242	-194.59196	264.70785	1348.11157	-123.64281	145.19038	1353.38501	-150.81401	310.51661	1435.31403	-246.11145	161.87925	1447.24152	-270.12281	245.95409	1304.51538	-373.90667	204.45196	1279.05327	-112.97858	199.67649	1175.01122	-114.51164	407.57034	1362.67517	-168.50361	500.57713	1154.48647	-172.7318	537.43519	1076.80367	-196.66538	482.37911	1001.49315	-102.61251	348.2851	978.7027	-31.32109	402.2665	917.882	-39.21012	361.58318	933.73367	23.63651	36.40496	1388.15384	-235.98524	-47.00539	1300.46631	-371.69048	-99.83938	1222.16858	-443.15884	-151.55568	1096.58852	-484.96059	-128.74339	949.1433	-448.73474	-191.8951	973.99223	-501.10004	-199.81695	915.03113	-453.3218	336.16196	913.31711	-193.91724	103.1519	921.74072	-198.04855	272.28029	965.34401	-411.77532	129.13953	959.48364	-409.17515	318.11218	741.46744	-451.64623	344.8505	473.24604	-433.38135	311.50383	288.21161	-475.33768	300.00805	131.54849	-608.39779	241.14796	135.52289	-654.13437	285.93357	55.46617	-448.82759	78.74667	652.68433	-284.72021	75.22569	478.6832	-80.8873	136.96552	309.00988	-7.43987	112.03875	91.92863	-28.86662	174.8221	85.1445	-66.52368	136.57601	110.5113	169.22537
73	3	299.62412	1585.31281	-0.04828	116.05671	1580.29175	-16.34232	319.55811	1576.91437	-127.61939	115.92624	1580.9198	-132.06604	258.79551	1332.6236	-57.40361	138.70049	1337.53998	-88.63783	307.32218	1419.20181	-181.01957	159.66978	1429.80087	-208.47046	246.61312	1285.51819	-308.00495	198.71685	1263.47511	-47.13228	195.32894	1159.50211	-47.07017	403.33336	1351.04279	-99.49057	506.04492	1146.76147	-92.24298	542.45117	1069.99283	-109.70882	476.49719	1009.22211	-12.81289	336.51283	1002.38983	50.14174	387.81502	938.5437	53.77861	343.03215	962.74597	110.59534	33.73562	1374.18243	-178.35499	-41.96481	1299.12338	-323.57895	-96.94603	1226.40137	-399.76929	-153.15599	1103.36548	-445.68611	-141.11391	954.93576	-407.92305	-199.17917	983.07785	-464.57138	-213.96694	925.45837	-417.47066	342.15519	896.32751	-130.89205	108.86179	903.30536	-124.00094	266.00208	951.7971	-344.56047	123.02479	942.94418	-336.6925	311.90022	738.26759	-394.9107	349.05605	471.27846	-398.83595	315.71142	287.5597	-453.02448	303.79877	142.54381	-599.17168	244.65761	150.33389	-644.21158	286.71988	55.27331	-448.46127	74.6469	634.49444	-207.76623	72.58542	470.33508	6.94614	131.78003	315.63808	103.31683	105.82667	98.40213	113.70768	168.6993	83.43832	77.90378	134.98436	162.9925	302.19095
74	3.033	293.39996	1573.76328	65.82417	110.03414	1568.86383	48.9505	313.47891	1562.01172	-61.43922	109.85985	1566.55502	-66.30799	252.47482	1319.57947	13.33496	133.29671	1322.67807	-19.86046	301.61518	1406.65131	-111.28025	154.96698	1415.15137	-140.11558	243.10043	1270.31868	-237.23349	193.62642	1249.26048	23.32095	192.40873	1145.14336	23.16862	396.3776	1343.08273	-26.57876	503.49445	1145.27649	-14.1397	544.89491	1068.21686	-30.62557	473.95851	1017.46292	69.20716	331.33968	1018.68645	127.00747	381.67084	955.40306	138.19814	333.30376	983.06717	190.10384	29.96824	1361.47003	-112.447	-38.9088	1293.45978	-262.0443	-94.0498	1225.06416	-342.58278	-153.29574	1103.86505	-392.12849	-149.3189	954.41467	-353.98373	-202.68717	984.86794	-414.08649	-222.78522	928.42094	-367.58476	348.47153	881.88614	-66.47819	114.94921	886.20132	-49.2323	255.77644	938.06702	-277.24447	115.10959	927.67296	-262.84727	303.857	730.55939	-332.29996	352.0586	467.1077	-352.09908	320.12604	287.40334	-422.31781	309.96605	158.61643	-583.24383	251.4547	171.41123	-627.9475	287.32409	55.07225	-447.34978	71.57449	622.57755	-126.67488	73.49265	462.51129	88.1256	133.52015	309.44731	185.71522	110.47177	90.79143	197.39511	176.68976	76.74347	166.52966	110.65944	162.82944	383.37868
75	3.067	285.88079	1567.89383	135.34876	102.48096	1561.15356	119.12955	305.55296	1553.33359	8.33532	102.04066	1556.21078	3.8833	246.38674	1310.49347	88.51068	126.91798	1312.01828	54.37322	294.80125	1398.34457	-37.21353	148.16294	1404.85458	-66.33437	237.99129	1259.99794	-161.82247	188.30212	1239.7477	99.08709	188.75954	1135.53558	99.28752	390.40577	1337.57935	47.97246	504.15421	1141.90475	56.78819	543.35583	1065.54962	39.92754	473.41068	1017.60643	141.71427	331.48476	1021.50978	200.64856	381.18652	957.70096	212.63002	333.00285	986.75919	264.23306	24.19155	1350.28549	-39.61138	-42.59364	1281.74286	-190.0139	-95.88341	1213.7693	-271.57515	-154.7219	1094.01367	-324.04839	-153.34629	944.27727	-286.92465	-204.44551	975.62111	-348.8826	-226.63391	918.98422	-303.26612	348.49087	868.36906	5.61209	115.65748	878.08411	25.05529	252.93005	928.31985	-203.85513	111.04098	921.17104	-187.8302	298.19155	723.69095	-263.04781	354.02985	464.03728	-296.42944	324.1909	290.80254	-382.93468	316.44629	180.34098	-557.3291	258.42327	198.5593	-600.57373	287.60754	55.19191	-445.06359	69.60216	615.84656	-51.28129	74.50742	453.24989	159.61127	136.00626	291.62718	245.71266	123.58593	75.97198	226.35315	185.80154	69.56034	198.48854	112.15665	108.34632	413.21388
